<?xml version="1.0" encoding="UTF-8"?><svg id="Layer_1" xmlns="http://www.w3.org/2000/svg" viewBox="0 0 96 69.79941"><path d="M95.75997,66.58306l-10.89715-13.10539H11.223L.22984,66.67907c-.28803,.33603-.28803,.76808-.09601,1.15212H95.80798c.24003-.38404,.28803-.86409-.04801-1.24814h0Z" style="fill:#9db8bf;"/><path d="M.13383,67.8312c.04801,.09601,.14402,.19202,.24003,.28803l1.15212,.91209c.62407,.48005,1.44015,.76808,2.25624,.76808H91.72754c.67207,0,1.34414-.19202,1.96821-.57606l1.8722-1.15212c.09601-.04801,.19202-.14402,.28803-.24003H.13383Zm13.10539-12.52934l-3.88841,5.18455c-.14401,.19202,0,.48005,.24003,.48005H86.54299c.24003,0,.38404-.28803,.24003-.48005l-3.98442-5.18455c-.04801-.09601-.14402-.09601-.24003-.09601H13.43124c-.04801-.04801-.14401,0-.19202,.09601Zm46.75696,10.99316h-27.98697c-.28803,0-.48005-.28803-.38404-.57606l.28803-.72008,1.20013-2.88031c.048-.14402,.19202-.24003,.38404-.24003h26.30679c.19202,0,.38404,.19202,.38404,.38404l.14402,2.73629,.048,.81609c.048,.28803-.14402,.48005-.38404,.48005ZM82.60658,7.00874H13.47925c-1.24813,0-2.25624,1.00811-2.25624,2.25624V52.56557H84.91082V9.31299c-.04801-1.29614-1.05611-2.30424-2.30425-2.30425Zm-1.20013,42.10046H14.72737V10.32109H81.40644V49.10921h0Zm-70.18344,3.50437v.86409h13.34542l.72008-.86409H11.22301Z" style="fill:#5b8895;"/><path d="M24.56842,53.47767h60.2944v-.86409H25.2885l-.72008,.86409Z" style="fill:#5b8895;"/><path d="M14.72737,10.32109H81.40644V49.10921H14.72737V10.32109Z" style="fill:#caecf4;"/><path d="M47.8989,9.98506s-2.73629-6.5767-27.89096-6.5767V43.63663c25.10666,0,27.89096,4.80051,27.89096,4.80051,0,0,2.73629-4.80051,27.89095-4.80051V3.45637c-25.15467,0-27.89096,6.52869-27.89095,6.52869Z" style="fill:#eb5925;"/><path d="M48.76298,6.72071V46.03688c1.77619-2.92831,7.10476-5.85662,22.6104-5.85662V0c-15.50565,0-20.78621,3.84041-22.6104,6.72071Z" style="fill:#f2f2f2;"/><path d="M24.4244,0V40.22827c15.50564,0,20.83421,2.92831,22.6104,5.85662V6.72071C45.25861,3.84041,39.93005,0,24.4244,0Z" style="fill:#f2f2f2;"/><path d="M47.0348,6.72071V46.03688c.62407,1.00811,.81609,1.77619,.86409,2.40025,.048-.57606,.24003-1.39215,.86409-2.40025V6.72071c-.57606,1.00811-1.10412,1.00811-1.72819,0Z" style="fill:#e5e5e4;"/><path d="M33.64138,7.87284c-1.15212-.14401-2.35225-.28803-3.64839-.33604-.43205,0-.72008-.38404-.72008-.76808,0-.43205,.38404-.76808,.81609-.72008,1.29614,.09601,2.54427,.19202,3.7444,.38404,.43205,.048,.72008,.43205,.62407,.86409-.048,.38404-.43205,.67207-.81609,.57606Z" style="fill:#5b8895;"/><path d="M42.3303,10.17708c-1.44015-.67207-3.12033-1.20013-5.04053-1.63217-.38404-.09601-.67207-.48005-.57606-.9121,.09601-.43205,.48005-.67207,.9121-.57606,2.06422,.43205,3.84041,1.05611,5.37657,1.77619,.38404,.19202,.57606,.67207,.33603,1.05611-.24003,.33604-.67207,.48005-1.00811,.28803Z" style="fill:#5b8895;"/><path d="M42.3303,15.50564c-2.97631-1.39215-7.15276-2.30424-12.33731-2.64028-.43205-.048-.72008-.38404-.72008-.76808,0-.43205,.38404-.72008,.81609-.72008,5.37657,.33604,9.69703,1.29614,12.91337,2.7843,.38404,.19202,.52806,.67207,.33603,1.00811-.24003,.38404-.67207,.52806-1.00811,.33604Z" style="fill:#5b8895;"/><path d="M35.41757,34.8517c-1.63217-.28803-3.45637-.48005-5.42458-.62407-.43205-.048-.72008-.38404-.72008-.81609s.38404-.76808,.81609-.72008c2.01621,.14402,3.88841,.33603,5.61659,.62407,.43205,.048,.67207,.48005,.62407,.9121-.09601,.43205-.52806,.67207-.9121,.62406Z" style="fill:#5b8895;"/><path d="M42.3303,36.86791c-.9121-.43205-1.9202-.81609-3.02432-1.10412-.38404-.09601-.62407-.52806-.52806-.9121,.09601-.43205,.52806-.67207,.9601-.52806,1.15212,.33603,2.25624,.76808,3.21634,1.20013,.38404,.19202,.57606,.67207,.33603,1.05611-.19202,.28803-.62407,.43205-.9601,.28803Z" style="fill:#5b8895;"/><path d="M52.50738,9.84104c-.19202-.38404-.048-.86409,.33603-1.05611,3.16834-1.48816,7.48879-2.40025,12.86536-2.7843,.43204-.048,.76808,.28803,.81609,.72008,0,.43205-.28803,.76808-.72008,.81609-5.18455,.33604-9.36099,1.24813-12.33731,2.64028-.33603,.19202-.76808,.048-.9601-.33604Z" style="fill:#5b8895;"/><path d="M61.62835,12.52933c-.04801-.43205,.24003-.81609,.67207-.86409,1.10412-.14401,2.25624-.24003,3.50437-.33604,.43204-.048,.76808,.28803,.81609,.72008,0,.43205-.28803,.76808-.72008,.81609-1.20013,.09601-2.30425,.19202-3.36036,.33604-.48005,.048-.86409-.24003-.91209-.67207Z" style="fill:#5b8895;"/><path d="M52.50738,15.16961c-.19202-.38404-.048-.86409,.33603-1.05611,1.63217-.76808,3.55238-1.39215,5.76061-1.82419,.43205-.09601,.81609,.19202,.9121,.62407,.09601,.43205-.19202,.81609-.57606,.86409-2.11222,.43205-3.93642,1.00811-5.42458,1.72818-.38404,.19202-.81609,.048-1.00811-.33603Z" style="fill:#5b8895;"/><path d="M52.50738,20.49817c-.19202-.38404-.048-.86409,.33603-1.05611,3.16834-1.48816,7.48879-2.40025,12.86536-2.7843,.43204-.048,.76808,.28803,.81609,.72008,0,.43204-.28803,.76808-.72008,.81609-5.18455,.33603-9.36099,1.24813-12.33731,2.64028-.33603,.19202-.76808,.048-.9601-.33604Z" style="fill:#5b8895;"/><path d="M58.50802,23.76252c-.09601-.43205,.19202-.81609,.57606-.9121,2.01621-.38404,4.22445-.67207,6.67271-.86409,.43204-.048,.76808,.28803,.81609,.72008,0,.43205-.28803,.76808-.72008,.81609-2.35225,.14402-4.51248,.43205-6.43268,.81609-.43205,.09601-.86409-.14402-.91209-.57606Z" style="fill:#5b8895;"/><path d="M52.50738,25.82674c-.19202-.38404-.048-.86409,.33603-1.05611,.81609-.38404,1.68018-.72008,2.59228-1.00811,.43205-.14402,.86409,.09601,.9601,.52806,.09601,.38404-.09601,.81609-.48005,.9121-.86409,.28803-1.72818,.62407-2.44826,.9601-.33603,.19202-.76808,.048-.9601-.33604Z" style="fill:#5b8895;"/><path d="M52.50738,31.20331c-.19202-.38404-.048-.86409,.33603-1.05611,3.16834-1.48816,7.48879-2.40025,12.86536-2.7843,.43204-.048,.76808,.28803,.81609,.72008,0,.43205-.28803,.76808-.72008,.81609-5.18455,.33603-9.36099,1.24813-12.33731,2.64028-.33603,.14402-.76808,0-.9601-.33603Z" style="fill:#5b8895;"/><path d="M42.3303,20.83421c-1.10412-.52806-2.35225-.9601-3.7444-1.34414-.38404-.09601-.67207-.52806-.52806-.9121,.09601-.43205,.52806-.67207,.9121-.57606,1.48816,.38404,2.8323,.86409,3.98442,1.44015,.38404,.19202,.57606,.67207,.33603,1.05611-.19202,.38404-.62407,.52806-.9601,.33604Z" style="fill:#5b8895;"/><path d="M34.84151,18.72199c-1.48816-.24003-3.12033-.43205-4.84851-.52806-.43205-.048-.72008-.38404-.72008-.81609s.38404-.76808,.81609-.72008c1.77619,.09601,3.45637,.28803,4.99253,.52806,.43205,.048,.72008,.48005,.62407,.86409-.048,.48005-.43205,.76808-.86409,.67207Z" style="fill:#5b8895;"/><path d="M39.06596,24.96265c-2.54427-.72008-5.56859-1.20013-9.07296-1.44015-.43205-.048-.72008-.38404-.72008-.81609s.38404-.76808,.81609-.72008c3.60038,.24003,6.76872,.76808,9.409,1.48816,.38404,.09601,.62407,.57606,.52806,.9601-.14402,.43205-.57606,.67207-.9601,.52806Z" style="fill:#5b8895;"/><path d="M31.67317,28.99507c-.52806-.048-1.10412-.09601-1.68018-.14402-.43205-.048-.72008-.38404-.72008-.81609s.38404-.76808,.81609-.72008l1.72818,.14402c.43205,.048,.72008,.43205,.67207,.81609-.048,.48005-.38404,.76808-.81609,.72008Z" style="fill:#5b8895;"/><path d="M42.3303,31.53935c-1.77619-.86409-4.03243-1.48816-6.6247-1.96821-.43205-.09601-.67207-.48005-.62407-.86409,.048-.43205,.48005-.72008,.86409-.62407,2.73629,.48005,5.08854,1.20013,7.00874,2.06422,.38404,.19202,.57606,.67207,.33603,1.05611-.19202,.33603-.62407,.48005-.9601,.33604Z" style="fill:#5b8895;"/><path d="M52.50738,36.53188c-.19202-.38404-.048-.86409,.33603-1.05611,2.35225-1.10412,5.42458-1.9202,9.02496-2.40025,.43204-.048,.81609,.24003,.86409,.67207s-.24003,.76808-.67207,.86409c-3.50437,.48005-6.38468,1.24813-8.59291,2.25624-.33603,.14402-.76808,0-.9601-.33604Z" style="fill:#5b8895;"/></svg>